<svg width="32" height="32" viewBox="0 0 32 32" fill="none" xmlns="http://www.w3.org/2000/svg">
<defs>
<linearGradient id="scale-grad" x1="0%" y1="0%" x2="100%" y2="100%">
<stop offset="0%" style="stop-color:#6366f1"/>
<stop offset="100%" style="stop-color:#4f46e5"/>
</linearGradient>
</defs>

<!-- Scalability/Growth Icon -->
<g fill="url(#scale-grad)">
<!-- Base platform -->
<rect x="2" y="26" width="28" height="4" rx="2" opacity="0.3"/>

<!-- Ascending bars/blocks -->
<rect x="4" y="20" width="4" height="6" rx="1" opacity="0.9"/>
<rect x="10" y="16" width="4" height="10" rx="1" opacity="0.8"/>
<rect x="16" y="12" width="4" height="14" rx="1" opacity="0.7"/>
<rect x="22" y="8" width="4" height="18" rx="1" opacity="0.6"/>

<!-- Arrow pointing up -->
<path d="M28 4l-2 2 2 2" stroke="url(#scale-grad)" stroke-width="2" stroke-linecap="round" stroke-linejoin="round" fill="none"/>
<path d="M26 6h4v4" stroke="url(#scale-grad)" stroke-width="2" stroke-linecap="round" stroke-linejoin="round" fill="none"/>

<!-- Growth curve -->
<path d="M2 24 Q8 20 14 16 T26 8" stroke="url(#scale-grad)" stroke-width="2" fill="none" opacity="0.6"/>

<!-- Data points -->
<circle cx="6" cy="22" r="1.5" fill="white" stroke="url(#scale-grad)" stroke-width="1"/>
<circle cx="12" cy="18" r="1.5" fill="white" stroke="url(#scale-grad)" stroke-width="1"/>
<circle cx="18" cy="14" r="1.5" fill="white" stroke="url(#scale-grad)" stroke-width="1"/>
<circle cx="24" cy="10" r="1.5" fill="white" stroke="url(#scale-grad)" stroke-width="1"/>

<!-- Network connections -->
<path d="M6 22 L12 18 L18 14 L24 10" stroke="url(#scale-grad)" stroke-width="1" opacity="0.4" stroke-dasharray="2,2"/>
</g>
</svg>
