<svg width="32" height="32" viewBox="0 0 32 32" fill="none" xmlns="http://www.w3.org/2000/svg">
<defs>
<linearGradient id="support-grad" x1="0%" y1="0%" x2="100%" y2="100%">
<stop offset="0%" style="stop-color:#10b981"/>
<stop offset="100%" style="stop-color:#059669"/>
</linearGradient>
</defs>

<!-- 24/7 Support Icon -->
<g fill="url(#support-grad)">
<!-- Headset main body -->
<path d="M16 4C10.5 4 6 8.5 6 14v6c0 1.1.9 2 2 2h2v-8c0-3.3 2.7-6 6-6s6 2.7 6 6v8h2c1.1 0 2-.9 2-2v-6c0-5.5-4.5-10-10-10z" opacity="0.8"/>

<!-- Left earpiece -->
<rect x="4" y="16" width="4" height="8" rx="2" opacity="0.9"/>

<!-- Right earpiece -->
<rect x="24" y="16" width="4" height="8" rx="2" opacity="0.9"/>

<!-- Microphone -->
<rect x="14" y="20" width="1" height="6" rx="0.5" opacity="0.7"/>
<circle cx="14.5" cy="27" r="1.5" opacity="0.6"/>

<!-- 24/7 indicator -->
<circle cx="22" cy="8" r="6" fill="white" stroke="url(#support-grad)" stroke-width="2"/>
<text x="22" y="6" text-anchor="middle" font-family="monospace" font-size="4" font-weight="bold" fill="url(#support-grad)">24</text>
<text x="22" y="10" text-anchor="middle" font-family="monospace" font-size="3" fill="url(#support-grad)">7</text>

<!-- Sound waves -->
<path d="M2 14 Q2 16 2 18" stroke="url(#support-grad)" stroke-width="2" stroke-linecap="round" opacity="0.5"/>
<path d="M30 14 Q30 16 30 18" stroke="url(#support-grad)" stroke-width="2" stroke-linecap="round" opacity="0.5"/>
<path d="M1 16 Q1 16 1 16" stroke="url(#support-grad)" stroke-width="2" stroke-linecap="round" opacity="0.7"/>
<path d="M31 16 Q31 16 31 16" stroke="url(#support-grad)" stroke-width="2" stroke-linecap="round" opacity="0.7"/>

<!-- Connection indicator -->
<circle cx="16" cy="2" r="1" fill="url(#support-grad)" opacity="0.6">
<animate attributeName="opacity" values="0.6;1;0.6" dur="2s" repeatCount="indefinite"/>
</circle>
<circle cx="16" cy="2" r="3" fill="none" stroke="url(#support-grad)" stroke-width="1" opacity="0.3">
<animate attributeName="r" values="3;5;3" dur="2s" repeatCount="indefinite"/>
<animate attributeName="opacity" values="0.3;0;0.3" dur="2s" repeatCount="indefinite"/>
</circle>
</g>
</svg>
