<svg width="32" height="32" viewBox="0 0 32 32" fill="none" xmlns="http://www.w3.org/2000/svg">
<defs>
<linearGradient id="innovation-grad" x1="0%" y1="0%" x2="100%" y2="100%">
<stop offset="0%" style="stop-color:#3b82f6"/>
<stop offset="100%" style="stop-color:#1d4ed8"/>
</linearGradient>
</defs>

<!-- Innovation/Lightbulb Icon -->
<g fill="url(#innovation-grad)">
<!-- Bulb shape -->
<path d="M16 2C11.6 2 8 5.6 8 10c0 2.4 1.1 4.6 2.8 6.2L12 24h8l1.2-7.8C22.9 14.6 24 12.4 24 10c0-4.4-3.6-8-8-8z" opacity="0.8"/>

<!-- Filament -->
<path d="M14 8v6M18 8v6M16 6v8" stroke="white" stroke-width="1.5" stroke-linecap="round" opacity="0.9"/>

<!-- Base -->
<rect x="12" y="24" width="8" height="2" rx="1" fill="url(#innovation-grad)"/>
<rect x="13" y="26" width="6" height="2" rx="1" fill="url(#innovation-grad)" opacity="0.7"/>

<!-- Sparkles around the bulb -->
<circle cx="6" cy="8" r="1" fill="url(#innovation-grad)" opacity="0.6"/>
<circle cx="26" cy="12" r="1.5" fill="url(#innovation-grad)" opacity="0.7"/>
<circle cx="8" cy="18" r="1" fill="url(#innovation-grad)" opacity="0.5"/>
<circle cx="24" cy="6" r="1" fill="url(#innovation-grad)" opacity="0.8"/>

<!-- Radiating lines -->
<path d="M4 10h2M26 10h2M16 2v2M7.5 5.5l1.4 1.4M24.5 5.5l-1.4 1.4" stroke="url(#innovation-grad)" stroke-width="1.5" stroke-linecap="round" opacity="0.6"/>
</g>
</svg>
